<svg width="187" height="38" viewBox="0 0 187 38" fill="none" xmlns="http://www.w3.org/2000/svg">
<path d="M54.9858 16.5653C54.9176 15.8778 54.625 15.3437 54.108 14.9631C53.5909 14.5824 52.8892 14.392 52.0028 14.392C51.4006 14.392 50.892 14.4773 50.4773 14.6477C50.0625 14.8125 49.7443 15.0426 49.5227 15.3381C49.3068 15.6335 49.1989 15.9688 49.1989 16.3438C49.1875 16.6562 49.2528 16.929 49.3949 17.1619C49.5426 17.3949 49.7443 17.5966 50 17.767C50.2557 17.9318 50.5511 18.0767 50.8864 18.2017C51.2216 18.321 51.5795 18.4233 51.9602 18.5085L53.5284 18.8835C54.2898 19.054 54.9886 19.2812 55.625 19.5653C56.2614 19.8494 56.8125 20.1989 57.2784 20.6136C57.7443 21.0284 58.1051 21.517 58.3608 22.0795C58.6222 22.642 58.7557 23.2869 58.7614 24.0142C58.7557 25.0824 58.483 26.0085 57.9432 26.7926C57.4091 27.571 56.6364 28.1761 55.625 28.608C54.6193 29.0341 53.4063 29.2472 51.9858 29.2472C50.5767 29.2472 49.3494 29.0312 48.304 28.5994C47.2642 28.1676 46.4517 27.5284 45.8665 26.6818C45.2869 25.8295 44.983 24.7756 44.9545 23.5199H48.5256C48.5653 24.1051 48.733 24.5937 49.0284 24.9858C49.3295 25.3722 49.7301 25.6648 50.2301 25.8636C50.7358 26.0568 51.3068 26.1534 51.9432 26.1534C52.5682 26.1534 53.1108 26.0625 53.571 25.8807C54.0369 25.6989 54.3977 25.446 54.6534 25.1222C54.9091 24.7983 55.0369 24.4261 55.0369 24.0057C55.0369 23.6136 54.9205 23.2841 54.6875 23.017C54.4602 22.75 54.125 22.5227 53.6818 22.3352C53.2443 22.1477 52.7074 21.9773 52.071 21.8239L50.1705 21.3466C48.6989 20.9886 47.5369 20.429 46.6847 19.6676C45.8324 18.9062 45.4091 17.8807 45.4148 16.5909C45.4091 15.5341 45.6903 14.6108 46.2585 13.821C46.8324 13.0312 47.6193 12.4148 48.6193 11.9716C49.6193 11.5284 50.7557 11.3068 52.0284 11.3068C53.3239 11.3068 54.4545 11.5284 55.4205 11.9716C56.392 12.4148 57.1477 13.0312 57.6875 13.821C58.2273 14.6108 58.5057 15.5256 58.5227 16.5653H54.9858ZM76.5634 20.2727C76.5634 22.1761 76.2026 23.7955 75.481 25.1307C74.7651 26.4659 73.7878 27.4858 72.5492 28.1903C71.3162 28.8892 69.9299 29.2386 68.3901 29.2386C66.8389 29.2386 65.4469 28.8864 64.2139 28.1818C62.981 27.4773 62.0066 26.4574 61.2907 25.1222C60.5747 23.7869 60.2168 22.1705 60.2168 20.2727C60.2168 18.3693 60.5747 16.75 61.2907 15.4148C62.0066 14.0795 62.981 13.0625 64.2139 12.3636C65.4469 11.6591 66.8389 11.3068 68.3901 11.3068C69.9299 11.3068 71.3162 11.6591 72.5492 12.3636C73.7878 13.0625 74.7651 14.0795 75.481 15.4148C76.2026 16.75 76.5634 18.3693 76.5634 20.2727ZM72.8219 20.2727C72.8219 19.0398 72.6372 18 72.2679 17.1534C71.9043 16.3068 71.3901 15.6648 70.7253 15.2273C70.0605 14.7898 69.2821 14.571 68.3901 14.571C67.498 14.571 66.7196 14.7898 66.0549 15.2273C65.3901 15.6648 64.873 16.3068 64.5037 17.1534C64.1401 18 63.9583 19.0398 63.9583 20.2727C63.9583 21.5057 64.1401 22.5455 64.5037 23.392C64.873 24.2386 65.3901 24.8807 66.0549 25.3182C66.7196 25.7557 67.498 25.9744 68.3901 25.9744C69.2821 25.9744 70.0605 25.7557 70.7253 25.3182C71.3901 24.8807 71.9043 24.2386 72.2679 23.392C72.6372 22.5455 72.8219 21.5057 72.8219 20.2727ZM89.3583 11.5455H93.0486V22.8807C93.0486 24.1534 92.7447 25.267 92.1367 26.2216C91.5344 27.1761 90.6907 27.9205 89.6055 28.4545C88.5202 28.983 87.256 29.2472 85.8128 29.2472C84.364 29.2472 83.0969 28.983 82.0117 28.4545C80.9265 27.9205 80.0827 27.1761 79.4805 26.2216C78.8782 25.267 78.577 24.1534 78.577 22.8807V11.5455H82.2674V22.5653C82.2674 23.2301 82.4123 23.821 82.702 24.3381C82.9975 24.8551 83.4123 25.2614 83.9464 25.5568C84.4805 25.8523 85.1026 26 85.8128 26C86.5288 26 87.1509 25.8523 87.6793 25.5568C88.2134 25.2614 88.6253 24.8551 88.9151 24.3381C89.2106 23.821 89.3583 23.2301 89.3583 22.5653V11.5455ZM109.964 11.5455V29H106.777L99.183 18.0142H99.0552V29H95.3649V11.5455H98.6035L106.138 22.5227H106.291V11.5455H109.964ZM118.481 29H112.293V11.5455H118.532C120.288 11.5455 121.799 11.8949 123.066 12.5938C124.333 13.2869 125.308 14.2841 125.989 15.5852C126.677 16.8864 127.021 18.4432 127.021 20.2557C127.021 22.0739 126.677 23.6364 125.989 24.9432C125.308 26.25 124.327 27.2528 123.049 27.9517C121.776 28.6506 120.254 29 118.481 29ZM115.984 25.8381H118.327C119.418 25.8381 120.336 25.6449 121.08 25.2585C121.83 24.8665 122.393 24.2614 122.768 23.4432C123.148 22.6193 123.339 21.5568 123.339 20.2557C123.339 18.9659 123.148 17.9119 122.768 17.0938C122.393 16.2756 121.833 15.6733 121.089 15.2869C120.344 14.9006 119.427 14.7074 118.336 14.7074H115.984V25.8381ZM138.503 16.5653C138.435 15.8778 138.142 15.3437 137.625 14.9631C137.108 14.5824 136.406 14.392 135.52 14.392C134.918 14.392 134.409 14.4773 133.994 14.6477C133.58 14.8125 133.262 15.0426 133.04 15.3381C132.824 15.6335 132.716 15.9688 132.716 16.3438C132.705 16.6562 132.77 16.929 132.912 17.1619C133.06 17.3949 133.262 17.5966 133.517 17.767C133.773 17.9318 134.068 18.0767 134.404 18.2017C134.739 18.321 135.097 18.4233 135.477 18.5085L137.046 18.8835C137.807 19.054 138.506 19.2812 139.142 19.5653C139.779 19.8494 140.33 20.1989 140.796 20.6136C141.262 21.0284 141.622 21.517 141.878 22.0795C142.139 22.642 142.273 23.2869 142.279 24.0142C142.273 25.0824 142 26.0085 141.46 26.7926C140.926 27.571 140.154 28.1761 139.142 28.608C138.137 29.0341 136.923 29.2472 135.503 29.2472C134.094 29.2472 132.867 29.0312 131.821 28.5994C130.781 28.1676 129.969 27.5284 129.384 26.6818C128.804 25.8295 128.5 24.7756 128.472 23.5199H132.043C132.083 24.1051 132.25 24.5937 132.546 24.9858C132.847 25.3722 133.247 25.6648 133.747 25.8636C134.253 26.0568 134.824 26.1534 135.46 26.1534C136.085 26.1534 136.628 26.0625 137.088 25.8807C137.554 25.6989 137.915 25.446 138.171 25.1222C138.426 24.7983 138.554 24.4261 138.554 24.0057C138.554 23.6136 138.438 23.2841 138.205 23.017C137.977 22.75 137.642 22.5227 137.199 22.3352C136.762 22.1477 136.225 21.9773 135.588 21.8239L133.688 21.3466C132.216 20.9886 131.054 20.429 130.202 19.6676C129.35 18.9062 128.926 17.8807 128.932 16.5909C128.926 15.5341 129.208 14.6108 129.776 13.821C130.35 13.0312 131.137 12.4148 132.137 11.9716C133.137 11.5284 134.273 11.3068 135.546 11.3068C136.841 11.3068 137.972 11.5284 138.938 11.9716C139.909 12.4148 140.665 13.0312 141.205 13.821C141.744 14.6108 142.023 15.5256 142.04 16.5653H138.503ZM144.041 29V11.5455H150.927C152.251 11.5455 153.379 11.7983 154.311 12.304C155.243 12.804 155.953 13.5 156.441 14.392C156.936 15.2784 157.183 16.3011 157.183 17.4602C157.183 18.6193 156.933 19.642 156.433 20.5284C155.933 21.4148 155.208 22.1051 154.26 22.5994C153.316 23.0937 152.174 23.3409 150.833 23.3409H146.444V20.3835H150.237C150.947 20.3835 151.532 20.2614 151.993 20.017C152.458 19.767 152.805 19.4233 153.032 18.9858C153.265 18.5426 153.382 18.0341 153.382 17.4602C153.382 16.8807 153.265 16.375 153.032 15.9432C152.805 15.5057 152.458 15.1676 151.993 14.929C151.527 14.6847 150.936 14.5625 150.22 14.5625H147.731V29H144.041ZM159.853 29H155.898L161.924 11.5455H166.679L172.697 29H168.742L164.37 15.5341H164.233L159.853 29ZM159.606 22.1392H168.947V25.0199H159.606V22.1392ZM174.077 29V11.5455H177.768V25.9574H185.251V29H174.077Z" fill="url(#paint0_linear_779_328)"/>
<rect width="38" height="38" rx="8" fill="url(#paint1_linear_779_328)"/>
<rect width="38" height="38" rx="8" fill="url(#paint2_linear_779_328)"/>
<path d="M16 31C18.2091 31 20 29.2091 20 27C20 24.7909 18.2091 23 16 23C13.7909 23 12 24.7909 12 27C12 29.2091 13.7909 31 16 31Z" stroke="white" stroke-width="2" stroke-linecap="round" stroke-linejoin="round"/>
<path d="M20 27V11L27 15" stroke="white" stroke-width="2" stroke-linecap="round" stroke-linejoin="round"/>
<defs>
<linearGradient id="paint0_linear_779_328" x1="44" y1="20.5" x2="187" y2="20.5" gradientUnits="userSpaceOnUse">
<stop stop-color="#7C3BED"/>
<stop offset="1" stop-color="#F471B7"/>
</linearGradient>
<linearGradient id="paint1_linear_779_328" x1="19" y1="0" x2="19" y2="38" gradientUnits="userSpaceOnUse">
<stop stop-color="#7C3BED"/>
<stop offset="1" stop-color="#F471B7"/>
</linearGradient>
<linearGradient id="paint2_linear_779_328" x1="19" y1="0" x2="19" y2="38" gradientUnits="userSpaceOnUse">
<stop stop-color="#7C3BED"/>
<stop offset="1" stop-color="#F471B7"/>
</linearGradient>
</defs>
</svg>
